HIERARCHY
ROOT Hips
{
  OFFSET -15.0391 94.7654 -12.5711
  CHANNELS 6 Xposition Yposition Zposition Zrotation Xrotation Yrotation
  JOINT ToSpine
  {
    OFFSET -2.69724 7.43032 -0.144315
    CHANNELS 3 Zrotation Xrotation Yrotation
    JOINT Spine
    {
      OFFSET -0.0310711 10.7595 1.96963
      CHANNELS 3 Zrotation Xrotation Yrotation
      JOINT Spine1
      {
        OFFSET 13.1342 3.43533 0.764692
        CHANNELS 3 Zrotation Xrotation Yrotation
        JOINT Neck
        {
          OFFSET 29.8703 7.82586 -0.130764
          CHANNELS 3 Zrotation Xrotation Yrotation
          JOINT Head
          {
            OFFSET 9.52751 0.295786 -0.907742
            CHANNELS 3 Zrotation Xrotation Yrotation
            End Site
            {
              OFFSET 16.4037 0.713936 2.7358
            }
          }
        }
        JOINT LeftShoulder
        {
          OFFSET 27.5574 4.95586 2.47156
          CHANNELS 3 Zrotation Xrotation Yrotation
          JOINT LeftArm
          {
            OFFSET 1.20734 -0.998971 20.1238
            CHANNELS 3 Zrotation Xrotation Yrotation
            JOINT LeftForeArm
            {
              OFFSET 26.8049 -0.0536703 -0.155908
              CHANNELS 3 Zrotation Xrotation Yrotation
              JOINT LeftHand
              {
                OFFSET 26.6817 0 0.320147
                CHANNELS 3 Zrotation Xrotation Yrotation
                End Site
                {
                  OFFSET 18.6119 0 0.382219
                }
              }
            }
          }
        }
        JOINT RightShoulder
        {
          OFFSET 27.5927 4.71444 -2.65209
          CHANNELS 3 Zrotation Xrotation Yrotation
          JOINT RightArm
          {
            OFFSET 2.83739 -1.17114 -18.7564
            CHANNELS 3 Zrotation Xrotation Yrotation
            JOINT RightForeArm
            {
              OFFSET 28.839 -0.0548439 1.22491
              CHANNELS 3 Zrotation Xrotation Yrotation
              JOINT RightHand
              {
                OFFSET 26.5114 0 -0.101894
                CHANNELS 3 Zrotation Xrotation Yrotation
                End Site
                {
                  OFFSET 18.2168 0 0
                }
              }
            }
          }
        }
      }
    }
  }
  JOINT LeftUpLeg
  {
    OFFSET -4.76168 -1.9167 -10.2353
    CHANNELS 3 Zrotation Xrotation Yrotation
    JOINT LeftLeg
    {
      OFFSET 2.55951 -42.0585 -8.02213
      CHANNELS 3 Zrotation Xrotation Yrotation
      JOINT LeftFoot
      {
        OFFSET 3.16357 -42.5282 -3.95426
        CHANNELS 3 Zrotation Xrotation Yrotation
        JOINT LeftToeBase
        {
          OFFSET 0.346054 -6.02161 12.8035
          CHANNELS 3 Zrotation Xrotation Yrotation
          End Site
          {
            OFFSET 0.134235 -1.35082 5.13018
          }
        }
      }
    }
  }
  JOINT RightUpLeg
  {
    OFFSET -4.94151 -1.41743 10.6446
    CHANNELS 3 Zrotation Xrotation Yrotation
    JOINT RightLeg
    {
      OFFSET -2.56294 -42.0364 -7.94377
      CHANNELS 3 Zrotation Xrotation Yrotation
      JOINT RightFoot
      {
        OFFSET -3.0952 -42.555 -4.02241
        CHANNELS 3 Zrotation Xrotation Yrotation
        JOINT RightToeBase
        {
          OFFSET -0.0828122 -6.13587 12.8035
          CHANNELS 3 Zrotation Xrotation Yrotation
          End Site
          {
            OFFSET -0.131328 -1.35082 5.13018
          }
        }
      }
    }
  }
}
MOTION
Frames:	20
Frame Time:	0.0333333
-15.0391 94.7654 -12.5711 70.6133 -32.9733 -9.27304 -70.1915 0 88.8779 72.0437 73.8339 12.6858 4.4038 22.5437 6.57042 -124.805 36.2679 157.416 173.049 79.1382 -142.602 0.466375 -14.3421 -23.8656 -64.9405 33.6529 -143.06 21.6286 -2.70757 -96.0603 0.420957 0.00057489 0.358661 -2.2914 7.62021 44.3335 -134.791 -2.06543 93.1321 8.91704 -0.228124 88.3496 0.58676 0.00033045 0.0646655 -49.3549 7.26465 95.8076 -2.59176 40.7671 -5.72776 2.80915 -13.7063 -1.20389 2.99924 -9.13419 11.8311 -45.8708 -14.4274 74.5778 3.31563 28.0113 -5.94999 -3.85589 5.03231 0.427626 1.27676 -8.89061 -2.40917 
-15.0191 94.7888 -12.5515 70.567 -33.0338 -9.31298 -70.1915 0 88.8779 72.1139 73.8434 12.8142 4.40278 22.64 6.25065 -124.495 36.0866 156.948 175.076 79.2314 -144.366 0.476464 -14.3438 -23.5927 -64.8103 33.6423 -143.134 21.4175 -2.68087 -96.0659 0.420957 0.00057489 0.358661 -2.29256 7.56432 44.5724 -134.78 -1.95431 93.3037 8.8923 -0.231528 88.3258 0.58676 0.00033045 0.0646655 -49.3573 7.29383 95.8311 -2.62513 40.752 -6.04391 2.30029 -13.6723 -1.19716 3.10938 -9.42524 12.4417 -45.9103 -14.3961 74.5776 3.34816 27.8842 -5.90925 -3.62479 4.98715 0.389774 1.25728 -8.64259 -2.46479 
-15.0432 94.8423 -12.5214 70.5993 -33.0463 -9.32946 -70.1915 0 88.8779 73.3203 73.924 11.776 4.06239 22.7467 5.86938 -124.123 35.8356 156.232 177.543 79.3434 -146.721 0.491155 -14.3378 -23.2256 -64.5916 33.8261 -143.331 21.5921 -2.6974 -96.0476 0.420957 0.00057489 0.358661 -2.25539 7.35793 44.9359 -134.654 -1.99027 93.4253 8.58539 -0.211862 88.3968 0.58676 0.00033045 0.0646655 -49.3556 7.29444 95.8393 -2.68704 40.7966 -6.56298 1.53612 -13.4325 -1.17635 3.25073 -9.82702 13.4822 -46.0242 -14.3613 74.6308 3.29611 27.7048 -6.41393 -3.24873 4.83028 0.332364 1.10286 -8.35537 -1.11838 
-15.0463 94.8583 -12.5042 70.5678 -33.0146 -9.37609 -70.1915 0 88.8779 73.4844 73.9203 11.5958 3.94242 22.7302 5.85925 -124.099 35.8612 156.34 176.882 79.3104 -146.073 0.483622 -14.3479 -23.3885 -64.6078 33.7674 -143.306 21.5439 -2.67899 -96.0185 0.420957 0.00057489 0.358661 -2.17604 7.17567 44.6456 -134.498 -2.41473 93.2965 8.32036 -0.189174 88.4983 0.58676 0.00033045 0.0646655 -49.3371 7.20277 95.735 -2.72337 40.8217 -6.87069 1.09101 -13.6872 -1.18898 2.90323 -9.40709 14.2213 -46.0488 -14.3724 74.616 3.28677 27.6246 -6.14386 -2.89918 4.83183 0.272496 1.13384 -8.15542 -1.6701 
-15.0089 94.8998 -12.5171 70.5934 -32.9584 -9.38434 -70.1915 0 88.8779 73.5725 73.8629 11.5201 3.98148 22.684 5.77674 -124.242 35.874 156.418 177.337 79.3092 -146.522 0.512168 -14.203 -23.1456 -64.5012 33.8276 -143.411 21.4896 -2.69468 -96.0756 0.420957 0.00057489 0.358661 -2.19967 7.23703 44.7035 -134.382 -2.37864 93.3654 8.33948 -0.188585 88.5049 0.58676 0.00033045 0.0646655 -49.3259 7.10614 95.6027 -2.71385 40.7981 -6.80739 1.74954 -13.4132 -1.17554 2.93929 -9.46733 14.2387 -46.1783 -14.4395 74.6199 3.38055 27.4341 -6.20622 -3.0893 4.87208 0.30303 1.15625 -8.06275 -2.01803 
-15.0527 94.8518 -12.5043 70.5108 -33.0791 -9.46983 -70.1915 0 88.8779 73.338 73.9771 11.6445 3.87261 22.7593 6.02179 -124.104 35.8383 156.428 177.041 79.2684 -146.043 0.487952 -14.321 -23.3705 -64.5237 33.7983 -143.299 21.5337 -2.69496 -96.0613 0.420957 0.00057489 0.358661 -2.3005 7.41326 45.2957 -134.419 -1.77932 93.5483 8.22808 -0.189417 88.4835 0.58676 0.00033045 0.0646655 -49.3471 7.25398 95.9316 -2.6959 40.7713 -6.67113 1.0686 -13.8731 -1.20091 2.76454 -9.07014 13.5649 -45.9098 -14.4296 74.6508 3.29588 27.7277 -6.41873 -2.89434 4.73936 0.276286 1.05048 -7.98264 -0.99659 
-15.0837 94.884 -12.4778 70.4374 -33.053 -9.51992 -70.1915 0 88.8779 73.0842 73.9585 11.8875 3.86964 22.7579 5.99572 -123.993 35.8476 156.45 176.813 79.2729 -145.801 0.475915 -14.3906 -23.4386 -64.557 33.7515 -143.057 21.6021 -2.74003 -96.1489 0.420957 0.00057489 0.358661 -2.21342 7.24842 44.8393 -134.384 -2.19615 93.4401 8.19535 -0.187065 88.4936 0.58676 0.00033045 0.0646655 -49.2816 7.20105 95.8157 -2.71792 40.7558 -6.88986 1.1628 -13.6517 -1.18799 2.85763 -9.31165 14.0928 -45.9099 -14.3505 74.7274 3.28101 27.5772 -6.29377 -2.98231 4.8496 0.285779 1.10283 -8.04872 -1.47162 
-15.053 94.8952 -12.4854 70.4196 -32.9561 -9.55178 -70.1915 0 88.8779 72.5769 73.9056 12.332 3.99034 22.7225 6.03279 -123.95 35.9067 156.497 176.21 79.286 -145.058 0.470748 -14.4017 -23.5338 -64.4679 33.7266 -143.064 21.5017 -2.7018 -96.089 0.420957 0.00057489 0.358661 -2.25179 7.32152 45.041 -134.373 -2.14079 93.5252 8.4512 -0.201613 88.4396 0.58676 0.00033045 0.0646655 -49.2281 7.11913 95.7326 -2.68838 40.684 -6.69486 1.96183 -13.2765 -1.16879 2.9759 -9.48016 13.9884 -45.9645 -14.4494 74.6769 3.3321 27.4865 -6.19116 -2.78676 4.81607 0.253991 1.12597 -7.94681 -1.83059 
-15.0801 94.912 -12.458 70.4067 -32.8945 -9.52063 -70.1915 0 88.8779 72.446 73.8396 12.5234 4.0824 22.6954 5.93583 -124.002 35.8297 156.488 177.282 79.2652 -146.122 0.476521 -14.3528 -23.5585 -64.4482 33.5783 -143.042 21.5336 -2.7052 -96.0866 0.420957 0.00057489 0.358661 -2.18462 7.21233 44.6059 -134.391 -2.56206 93.4225 8.15514 -0.186487 88.4906 0.58676 0.00033045 0.0646655 -49.2914 7.16097 95.79 -2.70788 40.5611 -7.00344 1.53175 -13.4827 -1.17822 2.89265 -9.38677 14.2038 -45.9944 -14.4108 74.7134 3.36872 27.4102 -6.39008 -3.01374 5.05606 0.280619 1.15245 -8.45434 -1.51216 
-15.1058 94.9286 -12.4177 70.4917 -32.7919 -9.32075 -70.1915 0 88.8779 73.067 73.7758 12.0347 4.01065 22.6199 5.81577 -123.84 35.7629 156.389 178.128 79.2845 -146.835 0.496311 -14.2782 -23.302 -64.3226 33.6409 -143.119 21.5591 -2.71962 -96.1135 0.420957 0.00057489 0.358661 -2.21159 7.23365 44.8774 -134.394 -2.58888 93.5103 8.07229 -0.20089 88.3854 0.58676 0.00033045 0.0646655 -49.331 7.23597 95.5742 -2.70695 40.5018 -7.05821 1.48302 -13.3455 -1.16929 2.96126 -9.5094 14.2916 -46.1705 -14.2697 74.6903 3.38325 27.2961 -6.75764 -2.9827 4.95859 0.280933 1.07576 -7.98076 -1.25729 
-15.1147 94.9223 -12.3816 70.4967 -32.6456 -9.20076 -70.1915 0 88.8779 72.8084 73.7441 12.2614 4.07541 22.5615 5.96578 -123.942 35.8726 156.606 176.841 79.2551 -145.506 0.479524 -14.3451 -23.5069 -64.3853 33.594 -143.244 21.7804 -2.73391 -96.0736 0.420957 0.00057489 0.358661 -2.18622 7.27424 44.368 -134.526 -2.76801 93.2112 8.41658 -0.192313 88.4925 0.58676 0.00033045 0.0646655 -49.1799 7.24186 95.2742 -2.70828 40.6542 -6.90801 1.89617 -13.1696 -1.16221 2.98671 -9.4971 13.9885 -46.1714 -14.1792 74.6687 3.32101 27.3698 -6.86921 -2.67192 4.62632 0.244465 1.0482 -7.55211 -1.44674 
-15.1561 94.9092 -12.3569 70.4032 -32.3641 -9.15909 -70.1915 0 88.8779 72.1069 73.6637 12.8896 4.14904 22.5122 6.04683 -123.891 35.7978 156.3 177.988 79.322 -146.524 0.466693 -14.4357 -23.5182 -64.5025 33.5307 -143.316 21.8347 -2.73033 -96.0466 0.420957 0.00057489 0.358661 -2.18361 7.2609 44.3887 -134.729 -2.66211 93.0318 8.64392 -0.194754 88.5095 0.58676 0.00033045 0.0646655 -49.0431 7.15171 95.0252 -2.71333 40.6145 -6.99591 1.18715 -13.4291 -1.17049 2.94159 -9.4107 13.8992 -46.0719 -14.2424 74.58 3.41408 27.4652 -6.7003 -3.42434 4.97267 0.354796 1.21273 -8.50589 -2.15249 
-15.1912 94.9674 -12.2941 70.3573 -32.2005 -9.15869 -70.1915 0 88.8779 72.0402 73.6293 12.8889 4.04437 22.4727 6.04207 -123.79 35.7844 156.384 177.22 79.258 -145.651 0.485116 -14.2981 -23.5295 -64.4435 33.4282 -143.302 21.6592 -2.73255 -96.1111 0.420957 0.00057489 0.358661 -2.19224 7.3022 44.3321 -134.688 -2.72356 92.838 8.21884 -0.193076 88.4589 0.58676 0.00033045 0.0646655 -48.9349 7.04917 94.657 -2.68269 40.5278 -6.8046 1.71655 -13.0927 -1.15396 2.96509 -9.41036 13.6849 -46.1124 -14.195 74.5742 3.35631 27.326 -6.89415 -3.60865 5.13427 0.38073 1.21906 -8.67885 -1.99064 
-15.2034 94.9924 -12.2183 70.4485 -31.9664 -8.95305 -70.1915 0 88.8779 72.0773 73.6439 12.8688 4.06775 22.4575 6.10908 -123.783 35.931 156.627 175.508 79.2415 -143.901 0.458038 -14.4735 -23.6072 -64.4219 33.4611 -143.449 21.4729 -2.65989 -95.9952 0.420957 0.00057489 0.358661 -2.15907 7.28086 43.978 -134.723 -2.75773 92.5927 7.36854 -0.17001 88.4835 0.58676 0.00033045 0.0646655 -48.8953 7.09717 94.3838 -2.7249 40.5849 -7.13735 1.7923 -13.1118 -1.15689 2.88771 -9.33854 13.9792 -46.2947 -14.1216 74.4268 3.34498 27.2542 -6.88728 -4.00133 5.40468 0.436698 1.31669 -9.44395 -2.20535 
-15.258 95.0172 -12.1219 70.4891 -31.6187 -8.64197 -70.1915 0 88.8779 72.3885 73.5571 12.5422 3.93232 22.3071 6.25173 -123.816 35.9632 156.406 176.779 79.3992 -145.289 0.458746 -14.4817 -23.5603 -64.3324 33.5904 -143.557 21.5325 -2.64949 -95.9496 0.420957 0.00057489 0.358661 -2.16347 7.27825 44.0476 -134.682 -2.61511 92.6171 7.76052 -0.203422 88.314 0.58676 0.00033045 0.0646655 -48.8023 7.21917 93.9721 -2.69693 40.5619 -6.89879 1.55115 -13.7041 -1.19458 2.59015 -8.67679 12.8989 -46.4677 -14.1229 74.0546 3.42578 27.2587 -7.1884 -3.8246 5.32209 0.409524 1.25031 -9.29314 -1.59807 
-15.2718 94.9685 -12.0244 70.6931 -31.2466 -8.20896 -70.1915 0 88.8779 73.3464 73.4604 11.6449 3.79848 22.1622 6.2271 -123.741 35.9153 156.146 177.254 79.4518 -145.715 0.490227 -14.3179 -23.3211 -64.2565 33.5103 -143.605 21.6156 -2.67694 -95.9895 0.420957 0.00057489 0.358661 -2.1624 7.24745 44.1608 -134.546 -2.54092 92.6771 8.78264 -0.297195 87.8867 0.58676 0.00033045 0.0646655 -48.8801 7.44795 93.6533 -2.64194 40.5011 -6.45903 1.12393 -14.6191 -1.25537 2.10382 -7.50757 11.1592 -46.6296 -14.0348 73.8854 3.44398 27.5522 -7.66648 -4.08929 5.39534 0.452897 1.26825 -9.77158 -1.13146 
-15.2868 95.0361 -11.8705 70.6831 -30.6818 -7.91547 -70.1915 0 88.8779 72.7608 73.3561 12.1995 3.89103 22.0865 6.25061 -123.622 35.8007 155.848 178.8 79.502 -147.043 0.45032 -14.6199 -23.2987 -64.2648 33.3595 -143.484 21.4398 -2.68125 -96.0592 0.420957 0.00057489 0.358661 -2.14491 7.27473 43.8139 -134.483 -2.51129 92.5687 8.92158 -0.423198 87.289 0.58676 0.00033045 0.0646655 -48.656 7.46606 93.0969 -2.73043 40.526 -7.25317 1.20268 -13.9945 -1.21181 2.44937 -8.25441 11.9688 -46.6943 -14.0082 73.5966 3.41062 27.6799 -8.09136 -4.03007 5.41792 0.441746 1.26448 -9.93623 -0.842604 
-15.3993 95.0261 -11.7463 70.7749 -30.1158 -7.50673 -70.1915 0 88.8779 74.4539 73.3762 10.8223 3.477 22.078 6.02808 -123.75 35.9731 155.806 178.516 79.6466 -146.771 0.479832 -14.4806 -23.0245 -63.94 33.2137 -143.668 21.0453 -2.65782 -96.1362 0.420957 0.00057489 0.358661 -2.10657 7.29776 43.2071 -134.337 -2.81046 92.4188 9.93888 -0.654703 86.2096 0.58676 0.00033045 0.0646655 -48.4337 7.6242 92.6418 -2.77239 40.6293 -7.53205 1.1014 -14.2821 -1.23158 2.14928 -7.72107 11.7812 -46.8127 -13.9896 73.2125 3.42235 27.9082 -8.66332 -3.73083 5.1342 0.401507 1.19213 -9.6579 -0.34581 
-15.4638 95.0004 -11.6927 70.9631 -29.5014 -7.27572 -70.1915 0 88.8779 76.409 73.5202 9.20657 3.17663 22.2158 5.73828 -124.479 36.4573 156.578 176.027 79.7052 -144.356 0.494191 -14.3908 -22.96 -63.6283 32.9149 -144.044 20.5363 -2.54223 -96.0177 0.420957 0.00057489 0.358661 -2.08116 7.61572 41.6438 -134.068 -3.30973 92.0404 10.5985 -1.0018 84.4352 0.58676 0.00033045 0.0646655 -48.319 7.47207 92.2224 -2.81381 40.6956 -7.85623 1.03007 -14.1979 -1.22512 2.20218 -7.83231 11.8969 -46.8889 -14.2801 72.8187 3.41244 28.3328 -8.56749 -3.30438 4.86499 0.340278 1.2261 -9.51389 -0.971829 
-15.5236 94.9836 -11.694 71.002 -28.8958 -7.5059 -70.1915 0 88.8779 78.6251 73.7892 7.56507 2.84128 22.5979 5.10924 -125.781 37.2652 158.262 172.06 79.71 -140.762 0.53812 -14.0374 -23.035 -62.7537 32.6056 -144.516 19.5953 -2.43058 -96.0568 0.420957 0.00057489 0.358661 -2.0681 7.8721 40.5551 -133.904 -3.43445 92.1851 11.3428 -1.58931 81.9988 0.58676 0.00033045 0.0646655 -48.2242 6.82435 91.8171 -2.82057 40.5683 -8.05263 0.614557 -14.3804 -1.23864 1.94805 -7.41004 11.8192 -46.4889 -14.9117 72.55 3.13164 29.18 -8.11098 -2.96008 4.58021 0.295449 1.28481 -9.57092 -1.64682 
